P3
3 5
255
123
92
23
25
215
205
215
205
21
0
34
1
0
252
50
20
50
250
111
16
100
16
200
15
11
240
50
255
0
0
0
255
0
111
24
5
2
90
195
100
60
0
80
20
100