P3
3 5
255
47
108
75
137
198
165
157
173
170
0
52
19
94
155
122
61
77
74
0
110
0
58
177
33
112
186
71
6
125
0
79
198
54
12
86
0
87
70
114
67
50
94
95
31
105