P3
3 5
255
0
0
0
255
255
255
255
255
255
5
5
5
250
250
250
250
250
250
100
100
100
100
100
100
100
100
100
250
250
250
5
5
5
5
5
5
255
255
255
0
0
0
0
0
0